# Blender v2.82 (sub 7) OBJ File: ''
# www.blender.org
mtllib disc.mtl
o Cylinder_Cylinder.001
v 0.000000 -0.076000 -0.760000
v 0.000000 0.076000 -0.760000
v 0.290839 -0.076000 -0.702148
v 0.290839 0.076000 -0.702148
v 0.537401 -0.076000 -0.537401
v 0.537401 0.076000 -0.537401
v 0.702148 -0.076000 -0.290839
v 0.702148 0.076000 -0.290839
v 0.760000 -0.076000 0.000000
v 0.760000 0.076000 0.000000
v 0.702148 -0.076000 0.290839
v 0.702148 0.076000 0.290839
v 0.537401 -0.076000 0.537401
v 0.537401 0.076000 0.537401
v 0.290839 -0.076000 0.702148
v 0.290839 0.076000 0.702148
v 0.000000 -0.076000 0.760000
v 0.000000 0.076000 0.760000
v -0.290839 -0.076000 0.702148
v -0.290839 0.076000 0.702148
v -0.537401 -0.076000 0.537401
v -0.537401 0.076000 0.537401
v -0.702148 -0.076000 0.290840
v -0.702148 0.076000 0.290840
v -0.760000 -0.076000 -0.000000
v -0.760000 0.076000 -0.000000
v -0.702148 -0.076000 -0.290840
v -0.702148 0.076000 -0.290840
v -0.537401 -0.076000 -0.537401
v -0.537401 0.076000 -0.537401
v -0.290839 -0.076000 -0.702149
v -0.290839 0.076000 -0.702149
v 0.000000 -0.040000 -0.800000
v 0.000000 0.000000 -0.800000
v 0.000000 0.040000 -0.800000
v 0.306147 0.040000 -0.739104
v 0.306147 0.000000 -0.739104
v 0.306147 -0.040000 -0.739104
v 0.565685 0.040000 -0.565685
v 0.565685 0.000000 -0.565685
v 0.565685 -0.040000 -0.565685
v 0.739104 0.040000 -0.306147
v 0.739104 0.000000 -0.306147
v 0.739104 -0.040000 -0.306147
v 0.800000 0.040000 0.000000
v 0.800000 0.000000 0.000000
v 0.800000 -0.040000 0.000000
v 0.739104 0.040000 0.306147
v 0.739104 0.000000 0.306147
v 0.739104 -0.040000 0.306147
v 0.565685 0.040000 0.565685
v 0.565685 0.000000 0.565685
v 0.565685 -0.040000 0.565685
v 0.306147 0.040000 0.739104
v 0.306147 0.000000 0.739104
v 0.306147 -0.040000 0.739104
v 0.000000 0.040000 0.800000
v 0.000000 0.000000 0.800000
v 0.000000 -0.040000 0.800000
v -0.306147 0.040000 0.739104
v -0.306147 0.000000 0.739104
v -0.306147 -0.040000 0.739104
v -0.565685 0.040000 0.565686
v -0.565685 0.000000 0.565686
v -0.565685 -0.040000 0.565686
v -0.739104 0.040000 0.306147
v -0.739104 0.000000 0.306147
v -0.739104 -0.040000 0.306147
v -0.800000 0.040000 -0.000000
v -0.800000 0.000000 -0.000000
v -0.800000 -0.040000 -0.000000
v -0.739104 0.040000 -0.306147
v -0.739104 0.000000 -0.306147
v -0.739104 -0.040000 -0.306147
v -0.565685 0.040000 -0.565686
v -0.565685 0.000000 -0.565686
v -0.565685 -0.040000 -0.565686
v -0.306146 0.040000 -0.739104
v -0.306146 0.000000 -0.739104
v -0.306146 -0.040000 -0.739104
vn 0.0000 -1.0000 0.0000
vn -0.1319 -0.7368 -0.6631
vn -0.1951 0.0000 -0.9808
vn -0.3756 -0.7368 -0.5622
vn -0.5556 0.0000 -0.8315
vn -0.5622 -0.7368 -0.3756
vn -0.8315 0.0000 -0.5556
vn -0.6631 -0.7368 -0.1319
vn -0.9808 0.0000 -0.1951
vn -0.6631 -0.7368 0.1319
vn -0.9808 0.0000 0.1951
vn -0.5622 -0.7368 0.3756
vn -0.8315 0.0000 0.5556
vn -0.3756 -0.7368 0.5622
vn -0.5556 0.0000 0.8315
vn -0.1319 -0.7368 0.6631
vn -0.1951 0.0000 0.9808
vn 0.1319 -0.7368 0.6631
vn 0.1951 0.0000 0.9808
vn 0.3756 -0.7368 0.5622
vn 0.5556 0.0000 0.8315
vn 0.5622 -0.7368 0.3756
vn 0.8315 0.0000 0.5556
vn 0.6631 -0.7368 0.1319
vn 0.9808 0.0000 0.1951
vn 0.6631 -0.7368 -0.1319
vn 0.9808 0.0000 -0.1951
vn 0.5622 -0.7368 -0.3756
vn 0.8315 0.0000 -0.5556
vn 0.3756 -0.7368 -0.5622
vn 0.5556 0.0000 -0.8315
vn 0.1319 -0.7368 -0.6631
vn 0.1951 0.0000 -0.9808
vn 0.1319 0.7368 -0.6631
vn 0.3756 0.7368 -0.5622
vn 0.5622 0.7368 -0.3756
vn 0.6631 0.7368 -0.1319
vn 0.6631 0.7368 0.1319
vn 0.5622 0.7368 0.3756
vn 0.3756 0.7368 0.5622
vn 0.1319 0.7368 0.6631
vn -0.1319 0.7368 0.6631
vn -0.3756 0.7368 0.5622
vn -0.5622 0.7368 0.3756
vn -0.6631 0.7368 0.1319
vn -0.6631 0.7368 -0.1319
vn -0.5622 0.7368 -0.3756
vn 0.0000 1.0000 0.0000
vn -0.3756 0.7368 -0.5622
vn -0.1319 0.7368 -0.6631
usemtl Black
s off
f 7//1 15//1 23//1
f 31//2 33//2 1//2
f 79//3 33//3 80//3
f 77//4 31//4 29//4
f 76//5 80//5 77//5
f 74//6 29//6 27//6
f 73//7 77//7 74//7
f 71//8 27//8 25//8
f 70//9 74//9 71//9
f 68//10 25//10 23//10
f 67//11 71//11 68//11
f 65//12 23//12 21//12
f 64//13 68//13 65//13
f 62//14 21//14 19//14
f 61//15 65//15 62//15
f 59//16 19//16 17//16
f 58//17 62//17 59//17
f 15//18 59//18 17//18
f 55//19 59//19 56//19
f 53//20 15//20 13//20
f 52//21 56//21 53//21
f 50//22 13//22 11//22
f 49//23 53//23 50//23
f 47//24 11//24 9//24
f 46//25 50//25 47//25
f 44//26 9//26 7//26
f 43//27 47//27 44//27
f 41//28 7//28 5//28
f 40//29 44//29 41//29
f 38//30 5//30 3//30
f 37//31 41//31 38//31
f 33//32 3//32 1//32
f 34//33 38//33 33//33
f 31//1 1//1 3//1
f 3//1 5//1 7//1
f 7//1 9//1 11//1
f 11//1 13//1 7//1
f 13//1 15//1 7//1
f 15//1 17//1 19//1
f 19//1 21//1 23//1
f 23//1 25//1 27//1
f 27//1 29//1 31//1
f 31//1 3//1 7//1
f 15//1 19//1 23//1
f 23//1 27//1 31//1
f 31//1 7//1 23//1
f 31//2 80//2 33//2
f 79//3 34//3 33//3
f 77//4 80//4 31//4
f 76//5 79//5 80//5
f 74//6 77//6 29//6
f 73//7 76//7 77//7
f 71//8 74//8 27//8
f 70//9 73//9 74//9
f 68//10 71//10 25//10
f 67//11 70//11 71//11
f 65//12 68//12 23//12
f 64//13 67//13 68//13
f 62//14 65//14 21//14
f 61//15 64//15 65//15
f 59//16 62//16 19//16
f 58//17 61//17 62//17
f 15//18 56//18 59//18
f 55//19 58//19 59//19
f 53//20 56//20 15//20
f 52//21 55//21 56//21
f 50//22 53//22 13//22
f 49//23 52//23 53//23
f 47//24 50//24 11//24
f 46//25 49//25 50//25
f 44//26 47//26 9//26
f 43//27 46//27 47//27
f 41//28 44//28 7//28
f 40//29 43//29 44//29
f 38//30 41//30 5//30
f 37//31 40//31 41//31
f 33//32 38//32 3//32
f 34//33 37//33 38//33
usemtl White
f 2//34 36//34 35//34
f 4//35 39//35 36//35
f 39//36 8//36 42//36
f 8//37 45//37 42//37
f 10//38 48//38 45//38
f 12//39 51//39 48//39
f 14//40 54//40 51//40
f 54//41 18//41 57//41
f 18//42 60//42 57//42
f 20//43 63//43 60//43
f 63//44 24//44 66//44
f 24//45 69//45 66//45
f 26//46 72//46 69//46
f 28//47 75//47 72//47
f 6//48 30//48 22//48
f 75//49 32//49 78//49
f 32//50 35//50 78//50
f 78//3 34//3 79//3
f 75//5 79//5 76//5
f 72//7 76//7 73//7
f 69//9 73//9 70//9
f 66//11 70//11 67//11
f 63//13 67//13 64//13
f 60//15 64//15 61//15
f 57//17 61//17 58//17
f 54//19 58//19 55//19
f 51//21 55//21 52//21
f 48//23 52//23 49//23
f 45//25 49//25 46//25
f 42//27 46//27 43//27
f 39//29 43//29 40//29
f 36//31 40//31 37//31
f 35//33 37//33 34//33
f 2//34 4//34 36//34
f 4//35 6//35 39//35
f 39//36 6//36 8//36
f 8//37 10//37 45//37
f 10//38 12//38 48//38
f 12//39 14//39 51//39
f 14//40 16//40 54//40
f 54//41 16//41 18//41
f 18//42 20//42 60//42
f 20//43 22//43 63//43
f 63//44 22//44 24//44
f 24//45 26//45 69//45
f 26//46 28//46 72//46
f 28//47 30//47 75//47
f 6//48 4//48 30//48
f 4//48 2//48 30//48
f 2//48 32//48 30//48
f 30//48 28//48 22//48
f 28//48 26//48 22//48
f 26//48 24//48 22//48
f 22//48 20//48 14//48
f 20//48 18//48 14//48
f 18//48 16//48 14//48
f 14//48 12//48 10//48
f 10//48 8//48 6//48
f 14//48 10//48 22//48
f 10//48 6//48 22//48
f 75//49 30//49 32//49
f 32//50 2//50 35//50
f 78//3 35//3 34//3
f 75//5 78//5 79//5
f 72//7 75//7 76//7
f 69//9 72//9 73//9
f 66//11 69//11 70//11
f 63//13 66//13 67//13
f 60//15 63//15 64//15
f 57//17 60//17 61//17
f 54//19 57//19 58//19
f 51//21 54//21 55//21
f 48//23 51//23 52//23
f 45//25 48//25 49//25
f 42//27 45//27 46//27
f 39//29 42//29 43//29
f 36//31 39//31 40//31
f 35//33 36//33 37//33
